<svg width="16" height="16" viewBox="0 0 16 16" fill="none" xmlns="http://www.w3.org/2000/svg">
<path d="M12.96 8.65992L12.9533 8.67325C12.98 8.45325 13.0067 8.22659 13.0067 7.99992C13.0067 7.77325 12.9867 7.55992 12.96 7.33992L12.9667 7.35325L14.5933 6.07325L12.9733 3.25992L11.06 4.03325L11.0667 4.03992C10.72 3.77325 10.34 3.54659 9.92666 3.37325H9.93333L9.62666 1.33325H6.38L6.08666 3.37992H6.09333C5.68 3.55325 5.3 3.77992 4.95333 4.04659L4.96 4.03992L3.04 3.25992L1.41333 6.07325L3.04 7.35325L3.04666 7.33992C3.02 7.55992 3 7.77325 3 7.99992C3 8.22659 3.02 8.45325 3.05333 8.67325L3.04666 8.65992L1.64666 9.75992L1.42666 9.93325L3.04666 12.7333L4.96666 11.9666L4.95333 11.9399C5.30666 12.2133 5.68666 12.4399 6.10666 12.6133H6.08666L6.38666 14.6666H9.62C9.62 14.6666 9.64 14.5466 9.66 14.3866L9.91333 12.6199H9.90666C10.32 12.4466 10.7067 12.2199 11.06 11.9466L11.0467 11.9733L12.9667 12.7399L14.5867 9.93992C14.5867 9.93992 14.4933 9.85992 14.3667 9.76659L12.96 8.65992ZM8 10.3333C6.71333 10.3333 5.66666 9.28659 5.66666 7.99992C5.66666 6.71325 6.71333 5.66659 8 5.66659C9.28666 5.66659 10.3333 6.71325 10.3333 7.99992C10.3333 9.28659 9.28666 10.3333 8 10.3333Z" fill="#48B527"/>
</svg>
