<svg width="24" height="24" viewBox="0 0 24 24" fill="none" xmlns="http://www.w3.org/2000/svg">
<path d="M15.9999 15.6666C18.025 15.6666 19.6666 14.025 19.6666 12C19.6666 9.97494 18.025 8.33331 15.9999 8.33331C13.9749 8.33331 12.3333 9.97494 12.3333 12C12.3333 14.025 13.9749 15.6666 15.9999 15.6666Z" fill="#19BCFE"/>
<path fill-rule="evenodd" clip-rule="evenodd" d="M8.66667 23C9.63913 23 10.5718 22.6137 11.2594 21.9261C11.947 21.2384 12.3333 20.3058 12.3333 19.3334V15.6667H8.66667C7.69421 15.6667 6.76158 16.053 6.07394 16.7406C5.38631 17.4283 5 18.3609 5 19.3334C5 20.3058 5.38631 21.2384 6.07394 21.9261C6.76158 22.6137 7.69421 23 8.66667 23Z" fill="#09CF83"/>
<path fill-rule="evenodd" clip-rule="evenodd" d="M8.66667 15.6666H12.3333V8.33331H8.66667C7.69421 8.33331 6.76158 8.71962 6.07394 9.40725C5.38631 10.0949 5 11.0275 5 12C5 12.9724 5.38631 13.9051 6.07394 14.5927C6.76158 15.2803 7.69421 15.6666 8.66667 15.6666Z" fill="#A259FF"/>
<path fill-rule="evenodd" clip-rule="evenodd" d="M8.66667 8.33333H12.3333V1H8.66667C7.69421 1 6.76158 1.38631 6.07394 2.07394C5.38631 2.76158 5 3.69421 5 4.66667C5 5.63913 5.38631 6.57176 6.07394 7.25939C6.76158 7.94702 7.69421 8.33333 8.66667 8.33333Z" fill="#F24E1E"/>
<path fill-rule="evenodd" clip-rule="evenodd" d="M15.9999 8.33333H12.3333V1H15.9999C16.9724 1 17.905 1.38631 18.5926 2.07394C19.2803 2.76158 19.6666 3.69421 19.6666 4.66667C19.6666 5.63913 19.2803 6.57176 18.5926 7.25939C17.905 7.94702 16.9724 8.33333 15.9999 8.33333Z" fill="#FF7262"/>
</svg>
